<?xml version="1.0" encoding="UTF-8" standalone="no"?>
<!DOCTYPE svg PUBLIC "-//W3C//DTD SVG 1.1//EN" "http://www.w3.org/Graphics/SVG/1.1/DTD/svg11.dtd">
<svg width="100%" height="100%" viewBox="0 0 255 155" version="1.1" xmlns="http://www.w3.org/2000/svg" xmlns:xlink="http://www.w3.org/1999/xlink" xml:space="preserve" xmlns:serif="http://www.serif.com/" style="fill-rule:evenodd;clip-rule:evenodd;stroke-linejoin:round;stroke-miterlimit:2;">
    <g transform="matrix(1,0,0,1,-169.886,-130)">
        <g transform="matrix(0.1,0,0,-0.1,0,420)">
            <path d="M2962,2128L2965,1355L3246,1352L3527,1350L3676,1431C3843,1522 3836,1518 3827,1526C3824,1530 3753,1496 3671,1451L3521,1370L3251,1370C3017,1370 2980,1372 2980,1385C2980,1398 3017,1400 3251,1400L3522,1400L3676,1474C3761,1515 3830,1553 3830,1559C3830,1565 3828,1570 3825,1570C3823,1570 3753,1536 3669,1495L3517,1420L3252,1422C3051,1424 2986,1428 2982,1438C2979,1447 3038,1450 3252,1450L3526,1450L3640,1501C3703,1529 3772,1558 3793,1567C3826,1580 3843,1600 3822,1600C3818,1600 3748,1571 3667,1535L3520,1470L3253,1472C3051,1474 2986,1478 2982,1488C2979,1497 3038,1500 3255,1500C3506,1500 3536,1502 3578,1520C3604,1530 3668,1555 3720,1575C3772,1595 3820,1616 3825,1622C3842,1640 3795,1626 3652,1571L3519,1520L3249,1520C3017,1520 2980,1522 2980,1535C2980,1548 3017,1550 3252,1550L3525,1550L3677,1601C3761,1629 3830,1656 3830,1661C3830,1674 3831,1674 3670,1620L3522,1570L3251,1570C3021,1570 2980,1572 2980,1584C2980,1597 3026,1599 3273,1602L3565,1606L3695,1644C3832,1685 3837,1686 3827,1696C3824,1699 3754,1684 3671,1661L3521,1620L3251,1620C3017,1620 2980,1622 2980,1635C2980,1648 3016,1650 3246,1650C3502,1650 3518,1651 3654,1679C3732,1696 3803,1712 3813,1716C3835,1724 3835,1743 3813,1736C3601,1678 3578,1675 3276,1675C3053,1675 2986,1678 2983,1688C2979,1697 3037,1700 3249,1700C3495,1700 3534,1702 3673,1726C3756,1740 3827,1754 3829,1756C3844,1770 3805,1767 3666,1745C3522,1722 3487,1720 3248,1722C3050,1724 2986,1728 2982,1738C2979,1747 3038,1750 3257,1750C3525,1750 3762,1767 3815,1790C3847,1804 3788,1802 3637,1785C3479,1767 2989,1767 2983,1786C2980,1794 3094,1799 3377,1804C3818,1811 3822,1811 3828,1830C3832,1840 3821,1841 3779,1836C3749,1833 3602,1827 3453,1823C3204,1818 3180,1819 3180,1834C3180,1849 3225,1850 3713,1850C4060,1850 4240,1854 4230,1860C4221,1866 4014,1870 3698,1870C3187,1870 3180,1870 3180,1890C3180,1910 3187,1910 3508,1910C3874,1910 4240,1920 4240,1930C4240,1933 4002,1934 3710,1932C3247,1928 3180,1929 3180,1942C3180,1960 3250,1964 3825,1981C4177,1991 4257,1998 4239,2014C4237,2016 4087,2012 3905,2005C3184,1977 3180,1977 3180,1993C3180,2014 3206,2016 3680,2040C4159,2064 4240,2070 4240,2081C4240,2092 4209,2092 4020,2080C3703,2059 3185,2032 3181,2035C3179,2037 3180,2045 3183,2053C3187,2063 3217,2069 3287,2074C3380,2080 3716,2105 4065,2131C4153,2138 4229,2147 4235,2152C4248,2164 4172,2162 3960,2145C3184,2083 3180,2082 3180,2105C3180,2113 3186,2120 3193,2120C3199,2120 3302,2129 3420,2141C4001,2197 4234,2221 4238,2225C4252,2239 4214,2237 3975,2214C3440,2163 3195,2140 3188,2140C3183,2140 3180,2146 3180,2154C3180,2170 3188,2172 3425,2200C3964,2263 4112,2280 4173,2286C4210,2289 4240,2296 4240,2301C4240,2314 4233,2313 3945,2280C3802,2263 3586,2239 3465,2225C3344,2212 3230,2198 3213,2195C3188,2190 3180,2193 3180,2204C3180,2224 3176,2224 3653,2286C4152,2351 4226,2360 4233,2360C4237,2360 4240,2365 4240,2371C4240,2384 4256,2386 3910,2340C3158,2241 3180,2243 3180,2263C3180,2272 3241,2286 3388,2309C3502,2327 3676,2354 3775,2370C3874,2386 4019,2409 4098,2421C4176,2433 4240,2447 4240,2451C4240,2464 4221,2463 4020,2430C3414,2332 3361,2325 3381,2344C3384,2347 3526,2377 3698,2411C3870,2445 4010,2477 4010,2481C4010,2494 4020,2495 3689,2430C3523,2397 3384,2373 3381,2375C3369,2387 3404,2400 3545,2433C3628,2452 3766,2485 3853,2505C3939,2526 4010,2546 4010,2551C4010,2564 4012,2565 3700,2490C3540,2452 3402,2420 3394,2420C3364,2420 3382,2440 3423,2450C3446,2456 3515,2474 3575,2491C3636,2507 3757,2539 3844,2563C3931,2586 4002,2610 4000,2615C3999,2621 3995,2624 3991,2623C3949,2612 3424,2470 3396,2462C3383,2459 3379,2461 3382,2471C3386,2483 3743,2598 3926,2646C3991,2663 4018,2675 4009,2685C4005,2688 3865,2649 3697,2599C3436,2520 3359,2502 3381,2524C3383,2526 3524,2575 3694,2632C3864,2689 4005,2741 4007,2747C4012,2761 4037,2769 3663,2645L3361,2545L3358,2437C3354,2284 3336,2299 3332,2460C3328,2636 3310,2631 3310,2455C3310,2342 3308,2320 3295,2320C3282,2320 3280,2344 3280,2474C3280,2567 3276,2631 3270,2635C3263,2639 3260,2583 3260,2476C3260,2335 3258,2310 3245,2310C3232,2310 3230,2337 3230,2495C3230,2612 3226,2680 3220,2680C3214,2680 3210,2610 3210,2490C3210,2328 3208,2300 3195,2300C3182,2300 3180,2331 3180,2515C3180,2650 3176,2730 3170,2730C3164,2730 3159,2568 3158,2278C3156,1984 3151,1825 3145,1825C3139,1825 3134,1988 3132,2290C3131,2546 3127,2762 3122,2770C3118,2778 3113,2569 3110,2305C3107,1995 3101,1825 3095,1825C3089,1825 3084,1997 3082,2315C3081,2585 3077,2812 3072,2820C3068,2828 3063,2608 3060,2330C3057,2003 3051,1825 3045,1825C3038,1825 3034,2008 3032,2348C3031,2681 3026,2870 3020,2870C3014,2870 3009,2681 3008,2348C3006,2008 3002,1825 2995,1825C2988,1825 2984,2013 2982,2363C2981,2712 2976,2900 2970,2900C2963,2900 2961,2636 2962,2128Z" style="fill-rule:nonzero;"/>
        </g>
        <g transform="matrix(0.1,0,0,-0.1,0,420)">
            <path d="M2917,2873C2905,2862 2909,1360 2920,1360C2927,1360 2930,1620 2930,2120C2930,2538 2929,2880 2927,2880C2925,2880 2920,2877 2917,2873Z" style="fill-rule:nonzero;"/>
        </g>
        <g transform="matrix(0.1,0,0,-0.1,0,420)">
            <path d="M2867,2843C2855,2832 2859,1370 2870,1370C2877,1370 2880,1623 2880,2110C2880,2517 2879,2850 2877,2850C2875,2850 2870,2847 2867,2843Z" style="fill-rule:nonzero;"/>
        </g>
        <g transform="matrix(0.1,0,0,-0.1,0,420)">
            <path d="M2810,2094C2810,1613 2813,1371 2820,1375C2834,1384 2834,2820 2820,2820C2813,2820 2810,2571 2810,2094Z" style="fill-rule:nonzero;"/>
        </g>
        <g transform="matrix(0.1,0,0,-0.1,0,420)">
            <path d="M2760,2085C2760,1622 2763,1380 2770,1380C2777,1380 2780,1622 2780,2085C2780,2548 2777,2790 2770,2790C2763,2790 2760,2548 2760,2085Z" style="fill-rule:nonzero;"/>
        </g>
        <g transform="matrix(0.1,0,0,-0.1,0,420)">
            <path d="M2710,2075C2710,1625 2713,1390 2720,1390C2727,1390 2730,1625 2730,2075C2730,2525 2727,2760 2720,2760C2713,2760 2710,2525 2710,2075Z" style="fill-rule:nonzero;"/>
        </g>
        <g transform="matrix(0.1,0,0,-0.1,0,420)">
            <path d="M2660,2065C2660,1617 2663,1391 2670,1395C2684,1404 2684,2726 2670,2735C2663,2739 2660,2513 2660,2065Z" style="fill-rule:nonzero;"/>
        </g>
        <g transform="matrix(0.1,0,0,-0.1,0,420)">
            <path d="M2610,2055C2610,1625 2613,1400 2620,1400C2627,1400 2630,1625 2630,2055C2630,2485 2627,2710 2620,2710C2613,2710 2610,2485 2610,2055Z" style="fill-rule:nonzero;"/>
        </g>
        <g transform="matrix(0.1,0,0,-0.1,0,420)">
            <path d="M2560,2360C2560,2082 2558,2040 2545,2040C2532,2040 2530,2081 2530,2345C2530,2539 2526,2650 2520,2650C2514,2650 2509,2536 2508,2343C2506,2146 2501,2035 2495,2035C2489,2035 2484,2138 2482,2320C2481,2477 2477,2612 2472,2620C2468,2628 2463,2500 2460,2336C2456,2109 2452,2036 2443,2032C2433,2029 2430,2089 2430,2309C2430,2485 2426,2591 2420,2595C2413,2599 2410,2534 2410,2407C2410,2263 2407,2210 2398,2202C2391,2197 2306,2151 2209,2101L2033,2010L1869,1999C1711,1989 1691,1986 1701,1975C1706,1970 2390,2005 2492,2015C2528,2019 2551,2017 2555,2010C2559,2004 2560,1996 2557,1994C2554,1991 2388,1982 2188,1974C1777,1958 1700,1953 1700,1939C1700,1933 1740,1931 1808,1935C1867,1938 2057,1947 2230,1955C2527,1969 2580,1967 2556,1943C2552,1938 2368,1931 2147,1927C1731,1918 1695,1916 1705,1899C1709,1894 1719,1891 1728,1894C1741,1898 2281,1912 2509,1914C2534,1915 2555,1910 2557,1903C2563,1888 2481,1884 2060,1882C1828,1880 1712,1876 1705,1869C1698,1861 1816,1859 2124,1861C2461,1864 2554,1862 2557,1853C2561,1843 2471,1840 2131,1840C1850,1840 1700,1837 1700,1830C1700,1824 1804,1820 1993,1820C2337,1820 2560,1811 2560,1797C2560,1791 2407,1790 2128,1795C1841,1799 1698,1798 1705,1792C1711,1786 1878,1779 2130,1775C2508,1769 2577,1764 2557,1744C2553,1740 2387,1742 2188,1749C1757,1762 1693,1763 1705,1751C1711,1747 1902,1738 2129,1731C2357,1724 2548,1716 2552,1714C2556,1711 2560,1705 2560,1699C2560,1686 2453,1688 2125,1705C1798,1722 1692,1724 1706,1711C1711,1706 1902,1694 2130,1685C2358,1675 2549,1664 2554,1659C2559,1654 2561,1647 2557,1643C2553,1639 2364,1649 2137,1663C1672,1694 1700,1693 1700,1681C1700,1677 1743,1670 1796,1666C1849,1662 1897,1657 1901,1654C1906,1651 1910,1613 1910,1569C1910,1518 1914,1491 1920,1495C1926,1498 1930,1537 1930,1581C1930,1641 1933,1661 1943,1658C1951,1655 1956,1625 1958,1566C1962,1457 1980,1460 1980,1571C1980,1675 1998,1673 2002,1568C2004,1514 2009,1485 2018,1482C2027,1479 2030,1500 2030,1565C2030,1630 2033,1651 2043,1648C2051,1645 2056,1615 2058,1556C2062,1443 2080,1452 2080,1568C2080,1680 2098,1666 2102,1550C2106,1438 2124,1439 2128,1553C2130,1621 2134,1640 2145,1640C2157,1640 2160,1622 2160,1548C2160,1498 2162,1459 2165,1462C2168,1464 2170,1500 2171,1542C2172,1621 2180,1647 2199,1636C2206,1631 2210,1594 2210,1539C2210,1421 2228,1423 2232,1543C2236,1665 2254,1659 2258,1535C2262,1413 2280,1418 2280,1541C2280,1613 2283,1630 2295,1630C2307,1630 2310,1613 2310,1535C2310,1478 2314,1440 2320,1440C2326,1440 2330,1478 2330,1535C2330,1587 2334,1630 2339,1630C2355,1630 2360,1600 2360,1514C2360,1460 2364,1431 2370,1435C2376,1438 2380,1484 2380,1536C2380,1608 2383,1631 2393,1628C2401,1625 2406,1593 2408,1527C2412,1401 2430,1400 2430,1525C2430,1603 2433,1620 2445,1620C2457,1620 2460,1602 2460,1520C2460,1460 2464,1420 2470,1420C2476,1420 2480,1460 2480,1520C2480,1602 2483,1620 2495,1620C2507,1620 2510,1602 2510,1515C2510,1452 2514,1410 2520,1410C2526,1410 2530,1452 2530,1516C2530,1596 2533,1621 2543,1618C2551,1615 2556,1582 2558,1512C2559,1455 2565,1410 2570,1410C2576,1410 2580,1644 2580,2045C2580,2462 2577,2680 2570,2680C2564,2680 2560,2567 2560,2360Z" style="fill-rule:nonzero;"/>
        </g>
    </g>
</svg>
